<svg width="310" height="140" viewBox="0 0 310 140" fill="none" xmlns="http://www.w3.org/2000/svg">
<g filter="url(#filter0_d)">
<path d="M19.12 86.672V93.968C18.448 94.352 17.648 94.656 16.72 94.88C15.792 95.088 14.848 95.192 13.888 95.192C12.512 95.192 11.272 94.976 10.168 94.544C9.08 94.112 8.144 93.52 7.36 92.768C6.576 92 5.976 91.096 5.56 90.056C5.144 89.016 4.936 87.88 4.936 86.648C4.936 85.288 5.176 84.048 5.656 82.928C6.152 81.792 6.816 80.816 7.648 80C8.496 79.184 9.464 78.552 10.552 78.104C11.656 77.64 12.824 77.408 14.056 77.408C14.888 77.408 15.76 77.52 16.672 77.744C17.584 77.952 18.376 78.256 19.048 78.656L17.776 80.792C17.536 80.648 17.256 80.52 16.936 80.408C16.632 80.296 16.312 80.2 15.976 80.12C15.64 80.04 15.304 79.984 14.968 79.952C14.632 79.904 14.312 79.88 14.008 79.88C13.16 79.88 12.344 80.048 11.56 80.384C10.776 80.72 10.088 81.184 9.496 81.776C8.904 82.368 8.432 83.064 8.08 83.864C7.728 84.664 7.552 85.528 7.552 86.456C7.552 87.304 7.704 88.104 8.008 88.856C8.328 89.608 8.768 90.272 9.328 90.848C9.888 91.424 10.56 91.88 11.344 92.216C12.128 92.552 12.992 92.72 13.936 92.72C14.304 92.72 14.736 92.688 15.232 92.624C15.744 92.544 16.232 92.416 16.696 92.24V88.928H13.312V86.672H19.12ZM21.3479 81.128C21.3479 80.744 21.4839 80.424 21.7559 80.168C22.0439 79.912 22.3479 79.784 22.6679 79.784C22.9879 79.784 23.2839 79.912 23.5559 80.168C23.8279 80.424 23.9639 80.744 23.9639 81.128C23.9639 81.512 23.8279 81.832 23.5559 82.088C23.2839 82.328 22.9879 82.448 22.6679 82.448C22.3479 82.448 22.0439 82.328 21.7559 82.088C21.4839 81.832 21.3479 81.512 21.3479 81.128ZM23.6519 95H21.6119V84.968H23.6519V95ZM25.6698 86.96V84.944H27.3738V82.616C27.3738 80.52 27.8618 78.968 28.8378 77.96C29.8298 76.936 31.2298 76.4 33.0378 76.352V78.32C31.7898 78.384 30.8778 78.784 30.3018 79.52C29.7258 80.256 29.4378 81.304 29.4378 82.664V84.944H32.6058V86.96H29.4378V95H27.3738V86.96H25.6698ZM35.1321 80.552H37.1721V84.992H39.8601V86.816H37.1721V95H35.1321V86.816H33.3321V84.992H35.1321V80.552ZM60.6964 93.752C60.5044 93.896 60.2324 94.056 59.8804 94.232C59.5444 94.392 59.1444 94.544 58.6804 94.688C58.2164 94.832 57.6964 94.952 57.1204 95.048C56.5604 95.144 55.9604 95.192 55.3204 95.192C53.9604 95.192 52.7364 94.96 51.6484 94.496C50.5764 94.016 49.6644 93.376 48.9124 92.576C48.1604 91.776 47.5844 90.848 47.1844 89.792C46.7844 88.736 46.5844 87.616 46.5844 86.432C46.5844 85.12 46.8164 83.912 47.2804 82.808C47.7604 81.704 48.4084 80.752 49.2244 79.952C50.0404 79.152 50.9924 78.528 52.0804 78.08C53.1844 77.632 54.3524 77.408 55.5844 77.408C56.0484 77.408 56.5204 77.44 57.0004 77.504C57.4804 77.568 57.9284 77.656 58.3444 77.768C58.7764 77.88 59.1524 78.016 59.4724 78.176C59.8084 78.32 60.0644 78.472 60.2404 78.632C60.1124 78.824 60.0084 78.984 59.9284 79.112C59.8644 79.24 59.7924 79.376 59.7124 79.52C59.6324 79.648 59.5444 79.8 59.4484 79.976C59.3524 80.152 59.2244 80.384 59.0644 80.672C58.8564 80.528 58.6084 80.408 58.3204 80.312C58.0484 80.216 57.7604 80.136 57.4564 80.072C57.1524 80.008 56.8404 79.96 56.5204 79.928C56.2164 79.896 55.9364 79.88 55.6804 79.88C54.7524 79.88 53.8884 80.056 53.0884 80.408C52.3044 80.744 51.6244 81.208 51.0484 81.8C50.4724 82.376 50.0164 83.048 49.6804 83.816C49.3604 84.584 49.2004 85.384 49.2004 86.216C49.2004 87.032 49.3524 87.816 49.6564 88.568C49.9764 89.32 50.4084 89.992 50.9524 90.584C51.5124 91.176 52.1764 91.648 52.9444 92C53.7284 92.352 54.5844 92.528 55.5124 92.528C56.0084 92.528 56.4884 92.48 56.9524 92.384C57.4164 92.288 57.8324 92.176 58.2004 92.048C58.5844 91.92 58.8964 91.792 59.1364 91.664C59.3924 91.536 59.5444 91.44 59.5924 91.376L60.6964 93.752ZM61.4393 90.08C61.4393 89.344 61.5753 88.656 61.8473 88.016C62.1353 87.36 62.5193 86.792 62.9993 86.312C63.4793 85.816 64.0313 85.424 64.6553 85.136C65.2953 84.848 65.9753 84.704 66.6953 84.704C67.1753 84.704 67.6153 84.768 68.0153 84.896C68.4153 85.008 68.7593 85.152 69.0473 85.328C69.3353 85.504 69.5673 85.688 69.7433 85.88C69.9193 86.072 70.0393 86.24 70.1033 86.384L70.1993 84.968H72.1673V95H70.1033V93.728C70.0233 93.856 69.8953 94.008 69.7193 94.184C69.5433 94.36 69.3113 94.528 69.0233 94.688C68.7513 94.832 68.4233 94.96 68.0393 95.072C67.6553 95.184 67.2153 95.24 66.7193 95.24C65.9513 95.24 65.2393 95.104 64.5833 94.832C63.9433 94.544 63.3913 94.168 62.9273 93.704C62.4633 93.224 62.0953 92.672 61.8233 92.048C61.5673 91.424 61.4393 90.768 61.4393 90.08ZM63.5033 89.96C63.5033 90.424 63.5833 90.856 63.7433 91.256C63.9193 91.656 64.1513 92 64.4393 92.288C64.7273 92.576 65.0713 92.808 65.4713 92.984C65.8713 93.144 66.3113 93.224 66.7913 93.224C67.2713 93.224 67.7113 93.144 68.1113 92.984C68.5273 92.808 68.8793 92.576 69.1673 92.288C69.4713 91.984 69.7033 91.64 69.8633 91.256C70.0233 90.856 70.1033 90.424 70.1033 89.96C70.1033 89.496 70.0233 89.072 69.8633 88.688C69.7033 88.288 69.4713 87.944 69.1673 87.656C68.8793 87.368 68.5273 87.144 68.1113 86.984C67.7113 86.808 67.2713 86.72 66.7913 86.72C66.3113 86.72 65.8713 86.808 65.4713 86.984C65.0713 87.144 64.7273 87.368 64.4393 87.656C64.1513 87.944 63.9193 88.288 63.7433 88.688C63.5833 89.072 63.5033 89.496 63.5033 89.96ZM80.5694 87.344C80.1214 87.344 79.6894 87.408 79.2734 87.536C78.8574 87.648 78.4814 87.824 78.1454 88.064C77.8254 88.304 77.5694 88.608 77.3774 88.976C77.1854 89.328 77.0894 89.736 77.0894 90.2V95H75.0494V84.968H76.8494C76.8814 85.464 76.9054 85.92 76.9214 86.336C76.9534 86.736 76.9854 87.136 77.0174 87.536C77.2254 87.104 77.4974 86.712 77.8334 86.36C78.1694 86.008 78.5294 85.712 78.9134 85.472C79.2974 85.232 79.6734 85.048 80.0414 84.92C80.4094 84.776 80.7374 84.704 81.0254 84.704L80.5694 87.344ZM81.643 89.984C81.643 89.2 81.771 88.488 82.027 87.848C82.299 87.192 82.667 86.632 83.131 86.168C83.595 85.704 84.139 85.344 84.763 85.088C85.403 84.832 86.091 84.704 86.827 84.704C87.323 84.704 87.763 84.768 88.147 84.896C88.547 85.008 88.883 85.152 89.155 85.328C89.443 85.488 89.683 85.672 89.875 85.88C90.067 86.088 90.211 86.272 90.307 86.432V76.352H92.371V95H90.307V94.256C90.307 94.16 90.315 94.056 90.331 93.944C90.347 93.816 90.355 93.712 90.355 93.632C90.195 93.824 90.003 94.016 89.779 94.208C89.571 94.384 89.323 94.552 89.035 94.712C88.747 94.872 88.411 95 88.027 95.096C87.659 95.192 87.235 95.24 86.755 95.24C85.955 95.24 85.235 95.104 84.595 94.832C83.971 94.544 83.435 94.168 82.987 93.704C82.555 93.224 82.219 92.664 81.979 92.024C81.755 91.384 81.643 90.704 81.643 89.984ZM83.707 89.96C83.707 90.424 83.787 90.856 83.947 91.256C84.123 91.656 84.355 92 84.643 92.288C84.931 92.576 85.275 92.808 85.675 92.984C86.075 93.144 86.515 93.224 86.995 93.224C87.475 93.224 87.915 93.144 88.315 92.984C88.731 92.808 89.083 92.576 89.371 92.288C89.675 91.984 89.907 91.64 90.067 91.256C90.227 90.856 90.307 90.424 90.307 89.96C90.307 89.496 90.227 89.072 90.067 88.688C89.907 88.288 89.675 87.944 89.371 87.656C89.083 87.368 88.731 87.144 88.315 86.984C87.915 86.808 87.475 86.72 86.995 86.72C86.515 86.72 86.075 86.808 85.675 86.984C85.275 87.144 84.931 87.368 84.643 87.656C84.355 87.944 84.123 88.288 83.947 88.688C83.787 89.072 83.707 89.496 83.707 89.96ZM100.845 85.856L99.7645 87.296C99.7485 87.28 99.6925 87.24 99.5965 87.176C99.5005 87.112 99.3725 87.048 99.2125 86.984C99.0685 86.92 98.8925 86.864 98.6845 86.816C98.4925 86.752 98.2925 86.72 98.0845 86.72C97.8125 86.72 97.5405 86.784 97.2685 86.912C97.0125 87.04 96.8845 87.28 96.8845 87.632C96.8845 87.936 96.9885 88.184 97.1965 88.376C97.4205 88.568 97.6925 88.744 98.0125 88.904C98.3325 89.048 98.6765 89.2 99.0445 89.36C99.4285 89.52 99.7805 89.72 100.101 89.96C100.421 90.184 100.685 90.472 100.893 90.824C101.117 91.16 101.229 91.592 101.229 92.12C101.229 93.016 100.917 93.76 100.293 94.352C99.6845 94.928 98.8445 95.216 97.7725 95.216C97.1485 95.216 96.5325 95.112 95.9245 94.904C95.3325 94.68 94.8525 94.36 94.4845 93.944C94.5965 93.832 94.7165 93.688 94.8445 93.512C94.9885 93.336 95.1245 93.168 95.2525 93.008C95.3965 92.848 95.5085 92.72 95.5885 92.624C95.6845 92.512 95.7405 92.456 95.7565 92.456C95.7565 92.472 95.8125 92.52 95.9245 92.6C96.0525 92.68 96.2125 92.768 96.4045 92.864C96.5965 92.944 96.8125 93.024 97.0525 93.104C97.2925 93.168 97.5325 93.2 97.7725 93.2C98.1565 93.2 98.4845 93.104 98.7565 92.912C99.0285 92.72 99.1645 92.464 99.1645 92.144C99.1645 91.856 99.0525 91.632 98.8285 91.472C98.6205 91.296 98.3565 91.136 98.0365 90.992C97.7165 90.848 97.3645 90.704 96.9805 90.56C96.5965 90.4 96.2445 90.2 95.9245 89.96C95.6045 89.72 95.3325 89.424 95.1085 89.072C94.9005 88.704 94.7965 88.232 94.7965 87.656C94.7965 87.112 94.8925 86.656 95.0845 86.288C95.2925 85.92 95.5485 85.624 95.8525 85.4C96.1725 85.16 96.5245 84.992 96.9085 84.896C97.2925 84.784 97.6605 84.728 98.0125 84.728C98.4765 84.728 98.9725 84.824 99.5005 85.016C100.029 85.208 100.477 85.488 100.845 85.856ZM106.169 92.912L104.057 97.904H102.089C102.409 97.072 102.721 96.24 103.025 95.408C103.329 94.592 103.641 93.76 103.961 92.912H106.169ZM128.337 93.752C128.145 93.896 127.873 94.056 127.521 94.232C127.185 94.392 126.785 94.544 126.321 94.688C125.857 94.832 125.337 94.952 124.761 95.048C124.201 95.144 123.601 95.192 122.961 95.192C121.601 95.192 120.377 94.96 119.289 94.496C118.217 94.016 117.305 93.376 116.553 92.576C115.801 91.776 115.225 90.848 114.825 89.792C114.425 88.736 114.225 87.616 114.225 86.432C114.225 85.12 114.457 83.912 114.921 82.808C115.401 81.704 116.049 80.752 116.865 79.952C117.681 79.152 118.633 78.528 119.721 78.08C120.825 77.632 121.993 77.408 123.225 77.408C123.689 77.408 124.161 77.44 124.641 77.504C125.121 77.568 125.569 77.656 125.985 77.768C126.417 77.88 126.793 78.016 127.113 78.176C127.449 78.32 127.705 78.472 127.881 78.632C127.753 78.824 127.649 78.984 127.569 79.112C127.505 79.24 127.433 79.376 127.353 79.52C127.273 79.648 127.185 79.8 127.089 79.976C126.993 80.152 126.865 80.384 126.705 80.672C126.497 80.528 126.249 80.408 125.961 80.312C125.689 80.216 125.401 80.136 125.097 80.072C124.793 80.008 124.481 79.96 124.161 79.928C123.857 79.896 123.577 79.88 123.321 79.88C122.393 79.88 121.529 80.056 120.729 80.408C119.945 80.744 119.265 81.208 118.689 81.8C118.113 82.376 117.657 83.048 117.321 83.816C117.001 84.584 116.841 85.384 116.841 86.216C116.841 87.032 116.993 87.816 117.297 88.568C117.617 89.32 118.049 89.992 118.593 90.584C119.153 91.176 119.817 91.648 120.585 92C121.369 92.352 122.225 92.528 123.153 92.528C123.649 92.528 124.129 92.48 124.593 92.384C125.057 92.288 125.473 92.176 125.841 92.048C126.225 91.92 126.537 91.792 126.777 91.664C127.033 91.536 127.185 91.44 127.233 91.376L128.337 93.752ZM129.08 89.96C129.08 89.24 129.216 88.56 129.488 87.92C129.776 87.28 130.16 86.728 130.64 86.264C131.12 85.784 131.68 85.408 132.32 85.136C132.976 84.848 133.68 84.704 134.432 84.704C135.184 84.704 135.88 84.848 136.52 85.136C137.176 85.408 137.736 85.784 138.2 86.264C138.68 86.728 139.048 87.28 139.304 87.92C139.576 88.56 139.712 89.24 139.712 89.96C139.712 90.68 139.576 91.36 139.304 92C139.048 92.64 138.68 93.2 138.2 93.68C137.736 94.16 137.176 94.544 136.52 94.832C135.88 95.104 135.176 95.24 134.408 95.24C133.672 95.24 132.976 95.112 132.32 94.856C131.68 94.6 131.12 94.24 130.64 93.776C130.16 93.312 129.776 92.76 129.488 92.12C129.216 91.464 129.08 90.744 129.08 89.96ZM131.12 89.984C131.12 90.432 131.2 90.856 131.36 91.256C131.536 91.64 131.768 91.984 132.056 92.288C132.36 92.576 132.704 92.808 133.088 92.984C133.488 93.144 133.912 93.224 134.36 93.224C134.808 93.224 135.232 93.144 135.632 92.984C136.032 92.808 136.376 92.576 136.664 92.288C136.968 91.984 137.208 91.64 137.384 91.256C137.56 90.856 137.648 90.432 137.648 89.984C137.648 89.536 137.56 89.112 137.384 88.712C137.208 88.312 136.968 87.968 136.664 87.68C136.376 87.376 136.032 87.144 135.632 86.984C135.232 86.808 134.808 86.72 134.36 86.72C133.912 86.72 133.488 86.808 133.088 86.984C132.704 87.144 132.36 87.376 132.056 87.68C131.768 87.968 131.536 88.312 131.36 88.712C131.2 89.112 131.12 89.536 131.12 89.984ZM151.229 95.216H149.501L149.261 92.432C148.893 93.248 148.373 93.92 147.701 94.448C147.045 94.976 146.205 95.24 145.181 95.24C144.157 95.24 143.341 94.968 142.733 94.424C142.141 93.864 141.829 93.136 141.797 92.24V84.968H143.837V91.328C143.869 91.824 144.045 92.248 144.365 92.6C144.701 92.952 145.213 93.152 145.901 93.2C146.381 93.2 146.821 93.12 147.221 92.96C147.621 92.784 147.965 92.552 148.253 92.264C148.541 91.976 148.765 91.632 148.925 91.232C149.085 90.832 149.165 90.392 149.165 89.912V84.968H151.229V95.216ZM162.6 89.96C162.6 89.496 162.528 89.072 162.384 88.688C162.24 88.288 162.032 87.944 161.76 87.656C161.488 87.368 161.16 87.144 160.776 86.984C160.392 86.808 159.96 86.72 159.48 86.72C159 86.72 158.552 86.808 158.136 86.984C157.736 87.144 157.392 87.368 157.104 87.656C156.816 87.944 156.584 88.288 156.408 88.688C156.248 89.072 156.168 89.496 156.168 89.96C156.168 90.424 156.248 90.856 156.408 91.256C156.584 91.656 156.816 92 157.104 92.288C157.392 92.576 157.736 92.808 158.136 92.984C158.552 93.144 159 93.224 159.48 93.224C159.96 93.224 160.392 93.144 160.776 92.984C161.16 92.808 161.488 92.576 161.76 92.288C162.032 91.984 162.24 91.64 162.384 91.256C162.528 90.856 162.6 90.424 162.6 89.96ZM164.832 90.008C164.832 90.76 164.704 91.456 164.448 92.096C164.192 92.736 163.832 93.288 163.368 93.752C162.904 94.216 162.344 94.584 161.688 94.856C161.048 95.112 160.344 95.24 159.576 95.24C159.176 95.24 158.792 95.192 158.424 95.096C158.072 95.016 157.744 94.904 157.44 94.76C157.136 94.6 156.872 94.432 156.648 94.256C156.424 94.064 156.256 93.872 156.144 93.68C156.144 93.76 156.144 93.848 156.144 93.944C156.16 94.024 156.168 94.104 156.168 94.184V99.824H154.104V84.968H156.096C156.096 85.16 156.104 85.4 156.12 85.688C156.152 85.96 156.168 86.208 156.168 86.432C156.296 86.24 156.464 86.048 156.672 85.856C156.896 85.648 157.152 85.464 157.44 85.304C157.744 85.128 158.08 84.984 158.448 84.872C158.816 84.76 159.224 84.704 159.672 84.704C160.44 84.704 161.136 84.832 161.76 85.088C162.4 85.328 162.944 85.68 163.392 86.144C163.856 86.592 164.208 87.144 164.448 87.8C164.704 88.456 164.832 89.192 164.832 90.008ZM166.369 89.96C166.369 89.24 166.505 88.56 166.777 87.92C167.065 87.28 167.449 86.728 167.929 86.264C168.409 85.784 168.969 85.408 169.609 85.136C170.265 84.848 170.969 84.704 171.721 84.704C172.473 84.704 173.169 84.848 173.809 85.136C174.465 85.408 175.025 85.784 175.489 86.264C175.969 86.728 176.337 87.28 176.593 87.92C176.865 88.56 177.001 89.24 177.001 89.96C177.001 90.68 176.865 91.36 176.593 92C176.337 92.64 175.969 93.2 175.489 93.68C175.025 94.16 174.465 94.544 173.809 94.832C173.169 95.104 172.465 95.24 171.697 95.24C170.961 95.24 170.265 95.112 169.609 94.856C168.969 94.6 168.409 94.24 167.929 93.776C167.449 93.312 167.065 92.76 166.777 92.12C166.505 91.464 166.369 90.744 166.369 89.96ZM168.409 89.984C168.409 90.432 168.489 90.856 168.649 91.256C168.825 91.64 169.057 91.984 169.345 92.288C169.649 92.576 169.993 92.808 170.377 92.984C170.777 93.144 171.201 93.224 171.649 93.224C172.097 93.224 172.521 93.144 172.921 92.984C173.321 92.808 173.665 92.576 173.953 92.288C174.257 91.984 174.497 91.64 174.673 91.256C174.849 90.856 174.937 90.432 174.937 89.984C174.937 89.536 174.849 89.112 174.673 88.712C174.497 88.312 174.257 87.968 173.953 87.68C173.665 87.376 173.321 87.144 172.921 86.984C172.521 86.808 172.097 86.72 171.649 86.72C171.201 86.72 170.777 86.808 170.377 86.984C169.993 87.144 169.649 87.376 169.345 87.68C169.057 87.968 168.825 88.312 168.649 88.712C168.489 89.112 168.409 89.536 168.409 89.984ZM179.182 84.968H180.982C181.014 85.464 181.038 85.92 181.054 86.336C181.086 86.736 181.118 87.136 181.15 87.536C181.518 86.672 182.038 85.984 182.71 85.472C183.398 84.96 184.238 84.704 185.23 84.704C186.238 84.704 187.046 84.984 187.654 85.544C188.262 86.104 188.582 86.824 188.614 87.704V95H186.55V88.64C186.518 88.128 186.342 87.696 186.022 87.344C185.702 86.976 185.198 86.776 184.51 86.744C184.03 86.744 183.59 86.832 183.19 87.008C182.79 87.168 182.446 87.392 182.158 87.68C181.87 87.968 181.638 88.312 181.462 88.712C181.302 89.112 181.222 89.552 181.222 90.032V95H179.182V84.968ZM196.985 85.856L195.905 87.296C195.889 87.28 195.833 87.24 195.737 87.176C195.641 87.112 195.513 87.048 195.353 86.984C195.209 86.92 195.033 86.864 194.825 86.816C194.633 86.752 194.433 86.72 194.225 86.72C193.953 86.72 193.681 86.784 193.409 86.912C193.153 87.04 193.025 87.28 193.025 87.632C193.025 87.936 193.129 88.184 193.337 88.376C193.561 88.568 193.833 88.744 194.153 88.904C194.473 89.048 194.817 89.2 195.185 89.36C195.569 89.52 195.921 89.72 196.241 89.96C196.561 90.184 196.825 90.472 197.033 90.824C197.257 91.16 197.369 91.592 197.369 92.12C197.369 93.016 197.057 93.76 196.433 94.352C195.825 94.928 194.985 95.216 193.913 95.216C193.289 95.216 192.673 95.112 192.065 94.904C191.473 94.68 190.993 94.36 190.625 93.944C190.737 93.832 190.857 93.688 190.985 93.512C191.129 93.336 191.265 93.168 191.393 93.008C191.537 92.848 191.649 92.72 191.729 92.624C191.825 92.512 191.881 92.456 191.897 92.456C191.897 92.472 191.953 92.52 192.065 92.6C192.193 92.68 192.353 92.768 192.545 92.864C192.737 92.944 192.953 93.024 193.193 93.104C193.433 93.168 193.673 93.2 193.913 93.2C194.297 93.2 194.625 93.104 194.897 92.912C195.169 92.72 195.305 92.464 195.305 92.144C195.305 91.856 195.193 91.632 194.969 91.472C194.761 91.296 194.497 91.136 194.177 90.992C193.857 90.848 193.505 90.704 193.121 90.56C192.737 90.4 192.385 90.2 192.065 89.96C191.745 89.72 191.473 89.424 191.249 89.072C191.041 88.704 190.937 88.232 190.937 87.656C190.937 87.112 191.033 86.656 191.225 86.288C191.433 85.92 191.689 85.624 191.993 85.4C192.313 85.16 192.665 84.992 193.049 84.896C193.433 84.784 193.801 84.728 194.153 84.728C194.617 84.728 195.113 84.824 195.641 85.016C196.169 85.208 196.617 85.488 196.985 85.856ZM202.309 92.912L200.197 97.904H198.229C198.549 97.072 198.861 96.24 199.165 95.408C199.469 94.592 199.781 93.76 200.101 92.912H202.309ZM6.136 131V113.6H10.888C11.8 113.6 12.632 113.72 13.384 113.96C14.152 114.2 14.808 114.56 15.352 115.04C15.912 115.504 16.344 116.08 16.648 116.768C16.952 117.44 17.104 118.216 17.104 119.096C17.104 119.576 17.056 120.056 16.96 120.536C16.864 121 16.704 121.456 16.48 121.904C16.272 122.336 16 122.744 15.664 123.128C15.328 123.496 14.92 123.808 14.44 124.064C15.08 125.072 15.776 126.192 16.528 127.424C17.28 128.64 18.04 129.832 18.808 131H15.664C15.344 130.504 15.008 129.984 14.656 129.44C14.32 128.896 13.976 128.36 13.624 127.832C13.288 127.288 12.952 126.76 12.616 126.248C12.296 125.72 11.992 125.232 11.704 124.784H11.224H8.776V131H6.136ZM8.776 122.312H11.152C11.792 122.312 12.328 122.208 12.76 122C13.192 121.776 13.528 121.504 13.768 121.184C14.024 120.864 14.2 120.52 14.296 120.152C14.408 119.784 14.464 119.448 14.464 119.144C14.464 118.84 14.408 118.512 14.296 118.16C14.2 117.792 14.024 117.456 13.768 117.152C13.512 116.832 13.168 116.568 12.736 116.36C12.32 116.152 11.8 116.048 11.176 116.048H8.776V122.312ZM28.0923 129.824C27.6123 130.256 27.0283 130.6 26.3403 130.856C25.6523 131.112 24.9483 131.24 24.2283 131.24C23.4923 131.24 22.7963 131.104 22.1403 130.832C21.5003 130.544 20.9403 130.168 20.4603 129.704C19.9803 129.224 19.5962 128.664 19.3083 128.024C19.0363 127.384 18.9003 126.704 18.9003 125.984C18.9003 125.264 19.0363 124.584 19.3083 123.944C19.5962 123.304 19.9803 122.744 20.4603 122.264C20.9403 121.784 21.4923 121.408 22.1163 121.136C22.7563 120.848 23.4363 120.704 24.1562 120.704C25.2923 120.704 26.2763 121.048 27.1083 121.736C27.9563 122.408 28.5643 123.296 28.9323 124.4C28.4363 124.576 27.8683 124.792 27.2283 125.048C26.5883 125.304 25.9243 125.576 25.2363 125.864C24.5483 126.136 23.8603 126.408 23.1723 126.68C22.4843 126.952 21.8443 127.2 21.2523 127.424C21.5243 127.968 21.9163 128.408 22.4283 128.744C22.9563 129.064 23.5403 129.224 24.1803 129.224C24.6123 129.224 25.0443 129.144 25.4763 128.984C25.9243 128.824 26.2843 128.608 26.5563 128.336L28.0923 129.824ZM26.3643 123.92C26.1723 123.52 25.8683 123.224 25.4523 123.032C25.0363 122.824 24.6123 122.72 24.1803 122.72C23.7163 122.72 23.2843 122.808 22.8843 122.984C22.5003 123.16 22.1643 123.4 21.8763 123.704C21.5883 123.992 21.3563 124.328 21.1803 124.712C21.0203 125.096 20.9403 125.488 20.9403 125.888C20.9403 125.968 20.9403 126.024 20.9403 126.056C20.9563 126.088 20.9643 126.112 20.9643 126.128C21.3803 125.968 21.8283 125.792 22.3083 125.6C22.8043 125.392 23.2923 125.192 23.7723 125C24.2523 124.792 24.7163 124.6 25.1643 124.424C25.6123 124.232 26.0123 124.064 26.3643 123.92ZM36.0604 122.576L35.3164 120.968H37.0924C37.5564 121.976 37.9484 122.848 38.2684 123.584C38.5884 124.304 38.8604 124.936 39.0844 125.48C39.3084 126.008 39.4924 126.456 39.6364 126.824C39.7804 127.192 39.9004 127.504 39.9964 127.76C40.0924 127.28 40.2044 126.848 40.3324 126.464C40.4764 126.064 40.6524 125.624 40.8604 125.144C41.0684 124.648 41.3164 124.08 41.6044 123.44C41.9084 122.784 42.2684 121.96 42.6844 120.968H44.7484L39.9964 131.6C39.7084 131.008 39.4364 130.424 39.1804 129.848C38.9404 129.256 38.7004 128.672 38.4604 128.096C38.2364 127.52 37.9964 126.944 37.7404 126.368C37.5004 125.792 37.2364 125.2 36.9484 124.592L33.9004 131.6L29.3644 120.968H31.4284C31.8444 121.96 32.1884 122.784 32.4604 123.44C32.7324 124.096 32.9564 124.664 33.1324 125.144C33.3244 125.624 33.4764 126.064 33.5884 126.464C33.7004 126.848 33.8044 127.28 33.9004 127.76C33.9644 127.568 34.0364 127.352 34.1164 127.112C34.2124 126.872 34.3324 126.568 34.4764 126.2C34.6364 125.816 34.8444 125.336 35.1004 124.76C35.3564 124.184 35.6764 123.456 36.0604 122.576ZM45.2909 126.08C45.2909 125.344 45.4269 124.656 45.6989 124.016C45.9869 123.36 46.3709 122.792 46.8509 122.312C47.3309 121.816 47.8829 121.424 48.5069 121.136C49.1469 120.848 49.8269 120.704 50.5469 120.704C51.0269 120.704 51.4669 120.768 51.8669 120.896C52.2669 121.008 52.6109 121.152 52.8989 121.328C53.1869 121.504 53.4189 121.688 53.5949 121.88C53.7709 122.072 53.8909 122.24 53.9549 122.384L54.0509 120.968H56.0189V131H53.9549V129.728C53.8749 129.856 53.7469 130.008 53.5709 130.184C53.3949 130.36 53.1629 130.528 52.8749 130.688C52.6029 130.832 52.2749 130.96 51.8909 131.072C51.5069 131.184 51.0669 131.24 50.5709 131.24C49.8029 131.24 49.0909 131.104 48.4349 130.832C47.7949 130.544 47.2429 130.168 46.7789 129.704C46.3149 129.224 45.9469 128.672 45.6749 128.048C45.4189 127.424 45.2909 126.768 45.2909 126.08ZM47.3549 125.96C47.3549 126.424 47.4349 126.856 47.5949 127.256C47.7709 127.656 48.0029 128 48.2909 128.288C48.5789 128.576 48.9229 128.808 49.3229 128.984C49.7229 129.144 50.1629 129.224 50.6429 129.224C51.1229 129.224 51.5629 129.144 51.9629 128.984C52.3789 128.808 52.7309 128.576 53.0189 128.288C53.3229 127.984 53.5549 127.64 53.7149 127.256C53.8749 126.856 53.9549 126.424 53.9549 125.96C53.9549 125.496 53.8749 125.072 53.7149 124.688C53.5549 124.288 53.3229 123.944 53.0189 123.656C52.7309 123.368 52.3789 123.144 51.9629 122.984C51.5629 122.808 51.1229 122.72 50.6429 122.72C50.1629 122.72 49.7229 122.808 49.3229 122.984C48.9229 123.144 48.5789 123.368 48.2909 123.656C48.0029 123.944 47.7709 124.288 47.5949 124.688C47.4349 125.072 47.3549 125.496 47.3549 125.96ZM64.4209 123.344C63.9729 123.344 63.5409 123.408 63.1249 123.536C62.7089 123.648 62.3329 123.824 61.9969 124.064C61.6769 124.304 61.4209 124.608 61.2289 124.976C61.0369 125.328 60.9409 125.736 60.9409 126.2V131H58.9009V120.968H60.7009C60.7329 121.464 60.7569 121.92 60.7729 122.336C60.8049 122.736 60.8369 123.136 60.8689 123.536C61.0769 123.104 61.3489 122.712 61.6849 122.36C62.0209 122.008 62.3809 121.712 62.7649 121.472C63.1489 121.232 63.5249 121.048 63.8929 120.92C64.2609 120.776 64.5889 120.704 64.8769 120.704L64.4209 123.344ZM65.4946 125.984C65.4946 125.2 65.6226 124.488 65.8786 123.848C66.1506 123.192 66.5186 122.632 66.9826 122.168C67.4466 121.704 67.9906 121.344 68.6146 121.088C69.2546 120.832 69.9426 120.704 70.6786 120.704C71.1746 120.704 71.6146 120.768 71.9986 120.896C72.3986 121.008 72.7346 121.152 73.0066 121.328C73.2946 121.488 73.5346 121.672 73.7266 121.88C73.9186 122.088 74.0626 122.272 74.1586 122.432V112.352H76.2226V131H74.1586V130.256C74.1586 130.16 74.1666 130.056 74.1826 129.944C74.1986 129.816 74.2066 129.712 74.2066 129.632C74.0466 129.824 73.8546 130.016 73.6306 130.208C73.4226 130.384 73.1746 130.552 72.8866 130.712C72.5986 130.872 72.2626 131 71.8786 131.096C71.5106 131.192 71.0866 131.24 70.6066 131.24C69.8066 131.24 69.0866 131.104 68.4466 130.832C67.8226 130.544 67.2866 130.168 66.8386 129.704C66.4066 129.224 66.0706 128.664 65.8306 128.024C65.6066 127.384 65.4946 126.704 65.4946 125.984ZM67.5586 125.96C67.5586 126.424 67.6386 126.856 67.7986 127.256C67.9746 127.656 68.2066 128 68.4946 128.288C68.7826 128.576 69.1266 128.808 69.5266 128.984C69.9266 129.144 70.3666 129.224 70.8466 129.224C71.3266 129.224 71.7666 129.144 72.1666 128.984C72.5826 128.808 72.9346 128.576 73.2226 128.288C73.5266 127.984 73.7586 127.64 73.9186 127.256C74.0786 126.856 74.1586 126.424 74.1586 125.96C74.1586 125.496 74.0786 125.072 73.9186 124.688C73.7586 124.288 73.5266 123.944 73.2226 123.656C72.9346 123.368 72.5826 123.144 72.1666 122.984C71.7666 122.808 71.3266 122.72 70.8466 122.72C70.3666 122.72 69.9266 122.808 69.5266 122.984C69.1266 123.144 68.7826 123.368 68.4946 123.656C68.2066 123.944 67.9746 124.288 67.7986 124.688C67.6386 125.072 67.5586 125.496 67.5586 125.96ZM84.6961 121.856L83.6161 123.296C83.6001 123.28 83.5441 123.24 83.4481 123.176C83.3521 123.112 83.2241 123.048 83.0641 122.984C82.9201 122.92 82.7441 122.864 82.5361 122.816C82.3441 122.752 82.1441 122.72 81.9361 122.72C81.6641 122.72 81.3921 122.784 81.1201 122.912C80.8641 123.04 80.7361 123.28 80.7361 123.632C80.7361 123.936 80.8401 124.184 81.0481 124.376C81.2721 124.568 81.5441 124.744 81.8641 124.904C82.1841 125.048 82.5281 125.2 82.8961 125.36C83.2801 125.52 83.6321 125.72 83.9521 125.96C84.2721 126.184 84.5361 126.472 84.7441 126.824C84.9681 127.16 85.0801 127.592 85.0801 128.12C85.0801 129.016 84.7681 129.76 84.1441 130.352C83.5361 130.928 82.6961 131.216 81.6241 131.216C81.0001 131.216 80.3841 131.112 79.7761 130.904C79.1841 130.68 78.7041 130.36 78.3361 129.944C78.4481 129.832 78.5681 129.688 78.6961 129.512C78.8401 129.336 78.9761 129.168 79.1041 129.008C79.2481 128.848 79.3601 128.72 79.4401 128.624C79.5361 128.512 79.5921 128.456 79.6081 128.456C79.6081 128.472 79.6641 128.52 79.7761 128.6C79.9041 128.68 80.0641 128.768 80.2561 128.864C80.4481 128.944 80.6641 129.024 80.9041 129.104C81.1441 129.168 81.3841 129.2 81.6241 129.2C82.0081 129.2 82.3361 129.104 82.6081 128.912C82.8801 128.72 83.0161 128.464 83.0161 128.144C83.0161 127.856 82.9041 127.632 82.6801 127.472C82.4721 127.296 82.2081 127.136 81.8881 126.992C81.5681 126.848 81.2161 126.704 80.8321 126.56C80.4481 126.4 80.0961 126.2 79.7761 125.96C79.4561 125.72 79.1841 125.424 78.9601 125.072C78.7521 124.704 78.6481 124.232 78.6481 123.656C78.6481 123.112 78.7441 122.656 78.9361 122.288C79.1441 121.92 79.4001 121.624 79.7041 121.4C80.0241 121.16 80.3761 120.992 80.7601 120.896C81.1441 120.784 81.5121 120.728 81.8641 120.728C82.3281 120.728 82.8241 120.824 83.3521 121.016C83.8801 121.208 84.3281 121.488 84.6961 121.856ZM106.64 131H104.192C104.064 130.84 103.92 130.672 103.76 130.496C103.632 130.336 103.472 130.152 103.28 129.944C103.104 129.72 102.904 129.472 102.68 129.2C102.168 129.808 101.496 130.304 100.664 130.688C99.8476 131.056 98.9196 131.24 97.8796 131.24C97.0476 131.24 96.2796 131.112 95.5756 130.856C94.8876 130.6 94.2876 130.24 93.7756 129.776C93.2796 129.312 92.8876 128.768 92.5996 128.144C92.3276 127.504 92.1916 126.808 92.1916 126.056C92.1916 125.416 92.2956 124.816 92.5036 124.256C92.7116 123.696 92.9996 123.2 93.3676 122.768C93.7356 122.32 94.1676 121.936 94.6636 121.616C95.1596 121.296 95.7036 121.056 96.2956 120.896C96.0716 120.56 95.8716 120.248 95.6956 119.96C95.5196 119.656 95.3676 119.392 95.2396 119.168C94.9836 118.656 94.7756 118.192 94.6156 117.776C94.4556 117.344 94.3756 116.88 94.3756 116.384C94.3756 115.84 94.4796 115.352 94.6876 114.92C94.9116 114.472 95.2076 114.096 95.5756 113.792C95.9596 113.488 96.3996 113.256 96.8956 113.096C97.4076 112.92 97.9436 112.824 98.5036 112.808C99.2716 112.776 99.9676 112.864 100.592 113.072C101.216 113.28 101.712 113.512 102.08 113.768C102.08 113.768 102.016 113.856 101.888 114.032C101.776 114.192 101.648 114.368 101.504 114.56C101.376 114.752 101.248 114.936 101.12 115.112C101.008 115.272 100.952 115.36 100.952 115.376C100.776 115.248 100.56 115.136 100.304 115.04C100.048 114.928 99.7516 114.856 99.4156 114.824C99.0796 114.776 98.7436 114.776 98.4076 114.824C98.0716 114.872 97.7676 114.968 97.4956 115.112C97.2236 115.256 96.9996 115.456 96.8236 115.712C96.6636 115.968 96.5836 116.28 96.5836 116.648C96.5836 117.08 96.6636 117.464 96.8236 117.8C96.9836 118.136 97.0956 118.344 97.1596 118.424L102.392 125.384L104.216 120.704H106.4L103.808 127.28L106.64 131ZM97.5916 122.72C97.1596 122.736 96.7436 122.832 96.3436 123.008C95.9436 123.168 95.5836 123.392 95.2636 123.68C94.9596 123.968 94.7116 124.312 94.5196 124.712C94.3436 125.096 94.2556 125.504 94.2556 125.936C94.2556 126.512 94.3596 127.008 94.5676 127.424C94.7916 127.824 95.0796 128.16 95.4316 128.432C95.7836 128.704 96.1836 128.904 96.6316 129.032C97.0956 129.16 97.5596 129.224 98.0236 129.224C98.3436 129.224 98.6716 129.184 99.0076 129.104C99.3436 129.024 99.6636 128.92 99.9676 128.792C100.272 128.648 100.552 128.48 100.808 128.288C101.064 128.096 101.272 127.888 101.432 127.664C100.824 126.896 100.184 126.088 99.5116 125.24C98.8396 124.376 98.1996 123.536 97.5916 122.72ZM114.722 112.832C114.866 113.056 115.162 113.488 115.61 114.128C116.074 114.752 116.602 115.48 117.194 116.312C117.802 117.144 118.442 118.032 119.114 118.976C119.786 119.904 120.418 120.784 121.01 121.616C121.602 122.432 122.114 123.144 122.546 123.752C122.994 124.36 123.29 124.76 123.434 124.952C123.482 124.872 123.634 124.656 123.89 124.304C124.146 123.952 124.458 123.512 124.826 122.984C125.21 122.456 125.642 121.864 126.122 121.208C126.602 120.536 127.09 119.856 127.586 119.168C128.098 118.464 128.594 117.768 129.074 117.08C129.57 116.392 130.026 115.768 130.442 115.208C130.858 114.632 131.21 114.136 131.498 113.72C131.802 113.288 132.018 112.992 132.146 112.832V131H129.362V121.256C129.362 121.128 129.37 120.992 129.386 120.848C129.418 120.704 129.434 120.6 129.434 120.536C129.29 120.728 129.058 121.056 128.738 121.52C128.434 121.968 128.074 122.488 127.658 123.08C127.258 123.656 126.834 124.272 126.386 124.928C125.938 125.568 125.514 126.176 125.114 126.752C124.714 127.328 124.362 127.84 124.058 128.288C123.754 128.72 123.546 129.024 123.434 129.2C123.322 129.056 123.098 128.76 122.762 128.312C122.442 127.848 122.058 127.312 121.61 126.704C121.178 126.096 120.714 125.448 120.218 124.76C119.738 124.072 119.29 123.432 118.874 122.84C118.458 122.248 118.098 121.744 117.794 121.328C117.49 120.896 117.314 120.632 117.266 120.536C117.266 120.6 117.274 120.704 117.29 120.848C117.322 120.992 117.338 121.128 117.338 121.256V131H114.722V112.832ZM134.564 125.96C134.564 125.24 134.7 124.56 134.972 123.92C135.26 123.28 135.644 122.728 136.124 122.264C136.604 121.784 137.164 121.408 137.804 121.136C138.46 120.848 139.164 120.704 139.916 120.704C140.668 120.704 141.364 120.848 142.004 121.136C142.66 121.408 143.22 121.784 143.684 122.264C144.164 122.728 144.532 123.28 144.788 123.92C145.06 124.56 145.196 125.24 145.196 125.96C145.196 126.68 145.06 127.36 144.788 128C144.532 128.64 144.164 129.2 143.684 129.68C143.22 130.16 142.66 130.544 142.004 130.832C141.364 131.104 140.66 131.24 139.892 131.24C139.156 131.24 138.46 131.112 137.804 130.856C137.164 130.6 136.604 130.24 136.124 129.776C135.644 129.312 135.26 128.76 134.972 128.12C134.7 127.464 134.564 126.744 134.564 125.96ZM136.604 125.984C136.604 126.432 136.684 126.856 136.844 127.256C137.02 127.64 137.252 127.984 137.54 128.288C137.844 128.576 138.188 128.808 138.572 128.984C138.972 129.144 139.396 129.224 139.844 129.224C140.292 129.224 140.716 129.144 141.116 128.984C141.516 128.808 141.86 128.576 142.148 128.288C142.452 127.984 142.692 127.64 142.868 127.256C143.044 126.856 143.132 126.432 143.132 125.984C143.132 125.536 143.044 125.112 142.868 124.712C142.692 124.312 142.452 123.968 142.148 123.68C141.86 123.376 141.516 123.144 141.116 122.984C140.716 122.808 140.292 122.72 139.844 122.72C139.396 122.72 138.972 122.808 138.572 122.984C138.188 123.144 137.844 123.376 137.54 123.68C137.252 123.968 137.02 124.312 136.844 124.712C136.684 125.112 136.604 125.536 136.604 125.984ZM152.898 123.344C152.45 123.344 152.018 123.408 151.602 123.536C151.186 123.648 150.81 123.824 150.474 124.064C150.154 124.304 149.898 124.608 149.706 124.976C149.514 125.328 149.418 125.736 149.418 126.2V131H147.378V120.968H149.178C149.21 121.464 149.234 121.92 149.25 122.336C149.282 122.736 149.314 123.136 149.346 123.536C149.554 123.104 149.826 122.712 150.162 122.36C150.498 122.008 150.858 121.712 151.242 121.472C151.626 121.232 152.002 121.048 152.37 120.92C152.738 120.776 153.066 120.704 153.354 120.704L152.898 123.344ZM163.139 129.824C162.659 130.256 162.075 130.6 161.387 130.856C160.699 131.112 159.995 131.24 159.275 131.24C158.539 131.24 157.843 131.104 157.187 130.832C156.547 130.544 155.987 130.168 155.507 129.704C155.027 129.224 154.643 128.664 154.355 128.024C154.083 127.384 153.947 126.704 153.947 125.984C153.947 125.264 154.083 124.584 154.355 123.944C154.643 123.304 155.027 122.744 155.507 122.264C155.987 121.784 156.539 121.408 157.163 121.136C157.803 120.848 158.483 120.704 159.203 120.704C160.339 120.704 161.323 121.048 162.155 121.736C163.003 122.408 163.611 123.296 163.979 124.4C163.483 124.576 162.915 124.792 162.275 125.048C161.635 125.304 160.971 125.576 160.283 125.864C159.595 126.136 158.907 126.408 158.219 126.68C157.531 126.952 156.891 127.2 156.299 127.424C156.571 127.968 156.963 128.408 157.475 128.744C158.003 129.064 158.587 129.224 159.227 129.224C159.659 129.224 160.091 129.144 160.523 128.984C160.971 128.824 161.331 128.608 161.603 128.336L163.139 129.824ZM161.411 123.92C161.219 123.52 160.915 123.224 160.499 123.032C160.083 122.824 159.659 122.72 159.227 122.72C158.763 122.72 158.331 122.808 157.931 122.984C157.547 123.16 157.211 123.4 156.923 123.704C156.635 123.992 156.403 124.328 156.227 124.712C156.067 125.096 155.987 125.488 155.987 125.888C155.987 125.968 155.987 126.024 155.987 126.056C156.003 126.088 156.011 126.112 156.011 126.128C156.427 125.968 156.875 125.792 157.355 125.6C157.851 125.392 158.339 125.192 158.819 125C159.299 124.792 159.763 124.6 160.211 124.424C160.659 124.232 161.059 124.064 161.411 123.92ZM166.401 112.76H168.609V126.968H166.401V112.76ZM167.505 131.096C167.169 131.096 166.857 130.968 166.569 130.712C166.297 130.456 166.161 130.128 166.161 129.728C166.161 129.328 166.297 129 166.569 128.744C166.857 128.488 167.169 128.36 167.505 128.36C167.841 128.36 168.145 128.488 168.417 128.744C168.689 129 168.825 129.328 168.825 129.728C168.825 130.128 168.689 130.456 168.417 130.712C168.145 130.968 167.841 131.096 167.505 131.096Z" fill="white"/>
</g>
<g filter="url(#filter1_d)">
<path d="M8.272 53V18.2H29.104V23.048H13.504V33.56H27.136V38.456H13.504V53H8.272ZM29.488 42.92C29.488 41.48 29.76 40.12 30.304 38.84C30.88 37.56 31.648 36.456 32.608 35.528C33.568 34.568 34.688 33.816 35.968 33.272C37.28 32.696 38.688 32.408 40.192 32.408C41.696 32.408 43.088 32.696 44.368 33.272C45.68 33.816 46.8 34.568 47.728 35.528C48.688 36.456 49.424 37.56 49.936 38.84C50.48 40.12 50.752 41.48 50.752 42.92C50.752 44.36 50.48 45.72 49.936 47C49.424 48.28 48.688 49.4 47.728 50.36C46.8 51.32 45.68 52.088 44.368 52.664C43.088 53.208 41.68 53.48 40.144 53.48C38.672 53.48 37.28 53.224 35.968 52.712C34.688 52.2 33.568 51.48 32.608 50.552C31.648 49.624 30.88 48.52 30.304 47.24C29.76 45.928 29.488 44.488 29.488 42.92ZM33.568 42.968C33.568 43.864 33.728 44.712 34.048 45.512C34.4 46.28 34.864 46.968 35.44 47.576C36.048 48.152 36.736 48.616 37.504 48.968C38.304 49.288 39.152 49.448 40.048 49.448C40.944 49.448 41.792 49.288 42.592 48.968C43.392 48.616 44.08 48.152 44.656 47.576C45.264 46.968 45.744 46.28 46.096 45.512C46.448 44.712 46.624 43.864 46.624 42.968C46.624 42.072 46.448 41.224 46.096 40.424C45.744 39.624 45.264 38.936 44.656 38.36C44.08 37.752 43.392 37.288 42.592 36.968C41.792 36.616 40.944 36.44 40.048 36.44C39.152 36.44 38.304 36.616 37.504 36.968C36.736 37.288 36.048 37.752 35.44 38.36C34.864 38.936 34.4 39.624 34.048 40.424C33.728 41.224 33.568 42.072 33.568 42.968ZM66.1544 37.688C65.2584 37.688 64.3944 37.816 63.5624 38.072C62.7304 38.296 61.9784 38.648 61.3064 39.128C60.6664 39.608 60.1544 40.216 59.7704 40.952C59.3864 41.656 59.1944 42.472 59.1944 43.4V53H55.1144V32.936H58.7144C58.7784 33.928 58.8264 34.84 58.8584 35.672C58.9224 36.472 58.9864 37.272 59.0504 38.072C59.4664 37.208 60.0104 36.424 60.6824 35.72C61.3544 35.016 62.0744 34.424 62.8424 33.944C63.6104 33.464 64.3624 33.096 65.0984 32.84C65.8344 32.552 66.4904 32.408 67.0664 32.408L66.1544 37.688ZM68.3016 43.016C68.3016 41.512 68.5736 40.12 69.1176 38.84C69.6616 37.528 70.3976 36.408 71.3256 35.48C72.2536 34.52 73.3416 33.768 74.5896 33.224C75.8376 32.68 77.1656 32.408 78.5736 32.408C79.6616 32.408 80.6216 32.552 81.4536 32.84C82.3176 33.128 83.0376 33.464 83.6136 33.848C84.1896 34.232 84.6376 34.616 84.9576 35C85.3096 35.352 85.5336 35.608 85.6296 35.768C85.6296 35.32 85.6616 34.856 85.7256 34.376C85.7896 33.864 85.8216 33.384 85.8216 32.936H89.7576V52.088C89.7576 55.416 88.7816 58.008 86.8296 59.864C84.8776 61.72 82.2376 62.648 78.9096 62.648C77.7576 62.648 76.7176 62.52 75.7896 62.264C74.8936 62.04 74.0616 61.736 73.2936 61.352C72.5576 60.968 71.8696 60.52 71.2296 60.008C70.6216 59.496 70.0136 58.968 69.4056 58.424L72.0456 55.64C73.0376 56.568 74.0456 57.304 75.0696 57.848C76.1256 58.392 77.3736 58.664 78.8136 58.664C80.9576 58.664 82.6216 58.152 83.8056 57.128C84.9896 56.104 85.5976 54.68 85.6296 52.856V51.464C85.6296 51.208 85.6616 50.936 85.7256 50.648C85.7896 50.328 85.8216 50.088 85.8216 49.928C85.5336 50.312 85.1656 50.728 84.7176 51.176C84.3016 51.592 83.8056 51.976 83.2296 52.328C82.6536 52.648 81.9816 52.92 81.2136 53.144C80.4456 53.368 79.5816 53.48 78.6216 53.48C77.1176 53.48 75.7416 53.208 74.4936 52.664C73.2456 52.12 72.1576 51.384 71.2296 50.456C70.3016 49.496 69.5816 48.392 69.0696 47.144C68.5576 45.864 68.3016 44.488 68.3016 43.016ZM72.4296 42.92C72.4296 43.848 72.5896 44.712 72.9096 45.512C73.2616 46.312 73.7256 47 74.3016 47.576C74.8776 48.152 75.5656 48.616 76.3656 48.968C77.1656 49.288 78.0456 49.448 79.0056 49.448C79.9656 49.448 80.8456 49.288 81.6456 48.968C82.4776 48.616 83.1816 48.152 83.7576 47.576C84.3656 46.968 84.8296 46.28 85.1496 45.512C85.4696 44.712 85.6296 43.848 85.6296 42.92C85.6296 41.992 85.4696 41.144 85.1496 40.376C84.8296 39.576 84.3656 38.888 83.7576 38.312C83.1816 37.736 82.4776 37.288 81.6456 36.968C80.8456 36.616 79.9656 36.44 79.0056 36.44C78.0456 36.44 77.1656 36.616 76.3656 36.968C75.5656 37.288 74.8776 37.736 74.3016 38.312C73.7256 38.888 73.2616 39.576 72.9096 40.376C72.5896 41.144 72.4296 41.992 72.4296 42.92ZM112.513 50.648C111.553 51.512 110.385 52.2 109.009 52.712C107.633 53.224 106.225 53.48 104.785 53.48C103.313 53.48 101.921 53.208 100.609 52.664C99.3286 52.088 98.2086 51.336 97.2486 50.408C96.2886 49.448 95.5206 48.328 94.9446 47.048C94.4006 45.768 94.1286 44.408 94.1286 42.968C94.1286 41.528 94.4006 40.168 94.9446 38.888C95.5206 37.608 96.2886 36.488 97.2486 35.528C98.2086 34.568 99.3126 33.816 100.561 33.272C101.841 32.696 103.201 32.408 104.641 32.408C106.913 32.408 108.881 33.096 110.545 34.472C112.241 35.816 113.457 37.592 114.193 39.8C113.201 40.152 112.065 40.584 110.785 41.096C109.505 41.608 108.177 42.152 106.801 42.728C105.425 43.272 104.049 43.816 102.673 44.36C101.297 44.904 100.017 45.4 98.8326 45.848C99.3766 46.936 100.161 47.816 101.185 48.488C102.241 49.128 103.409 49.448 104.689 49.448C105.553 49.448 106.417 49.288 107.281 48.968C108.177 48.648 108.897 48.216 109.441 47.672L112.513 50.648ZM109.057 38.84C108.673 38.04 108.065 37.448 107.233 37.064C106.401 36.648 105.553 36.44 104.689 36.44C103.761 36.44 102.897 36.616 102.097 36.968C101.329 37.32 100.657 37.8 100.081 38.408C99.5046 38.984 99.0406 39.656 98.6886 40.424C98.3686 41.192 98.2086 41.976 98.2086 42.776C98.2086 42.936 98.2086 43.048 98.2086 43.112C98.2406 43.176 98.2566 43.224 98.2566 43.256C99.0886 42.936 99.9846 42.584 100.945 42.2C101.937 41.784 102.913 41.384 103.873 41C104.833 40.584 105.761 40.2 106.657 39.848C107.553 39.464 108.353 39.128 109.057 38.84ZM119.467 24.104H123.547V32.984H128.923V36.632H123.547V53H119.467V36.632H115.867V32.984H119.467V24.104ZM144.772 16.664C145.06 17.112 145.652 17.976 146.548 19.256C147.476 20.504 148.532 21.96 149.716 23.624C150.932 25.288 152.212 27.064 153.556 28.952C154.9 30.808 156.164 32.568 157.348 34.232C158.532 35.864 159.556 37.288 160.42 38.504C161.316 39.72 161.908 40.52 162.196 40.904C162.292 40.744 162.596 40.312 163.108 39.608C163.62 38.904 164.244 38.024 164.98 36.968C165.748 35.912 166.612 34.728 167.572 33.416C168.532 32.072 169.508 30.712 170.5 29.336C171.524 27.928 172.516 26.536 173.476 25.16C174.468 23.784 175.38 22.536 176.212 21.416C177.044 20.264 177.748 19.272 178.324 18.44C178.932 17.576 179.364 16.984 179.62 16.664V53H174.052V33.512C174.052 33.256 174.068 32.984 174.1 32.696C174.164 32.408 174.196 32.2 174.196 32.072C173.908 32.456 173.444 33.112 172.804 34.04C172.196 34.936 171.476 35.976 170.644 37.16C169.844 38.312 168.996 39.544 168.1 40.856C167.204 42.136 166.356 43.352 165.556 44.504C164.756 45.656 164.052 46.68 163.444 47.576C162.836 48.44 162.42 49.048 162.196 49.4C161.972 49.112 161.524 48.52 160.852 47.624C160.212 46.696 159.444 45.624 158.548 44.408C157.684 43.192 156.756 41.896 155.764 40.52C154.804 39.144 153.908 37.864 153.076 36.68C152.244 35.496 151.524 34.488 150.916 33.656C150.308 32.792 149.956 32.264 149.86 32.072C149.86 32.2 149.876 32.408 149.908 32.696C149.972 32.984 150.004 33.256 150.004 33.512V53H144.772V16.664ZM202.841 50.648C201.881 51.512 200.713 52.2 199.337 52.712C197.961 53.224 196.553 53.48 195.113 53.48C193.641 53.48 192.249 53.208 190.937 52.664C189.657 52.088 188.537 51.336 187.577 50.408C186.617 49.448 185.849 48.328 185.273 47.048C184.729 45.768 184.457 44.408 184.457 42.968C184.457 41.528 184.729 40.168 185.273 38.888C185.849 37.608 186.617 36.488 187.577 35.528C188.537 34.568 189.641 33.816 190.889 33.272C192.169 32.696 193.529 32.408 194.969 32.408C197.241 32.408 199.209 33.096 200.873 34.472C202.569 35.816 203.785 37.592 204.521 39.8C203.529 40.152 202.393 40.584 201.113 41.096C199.833 41.608 198.505 42.152 197.129 42.728C195.753 43.272 194.377 43.816 193.001 44.36C191.625 44.904 190.345 45.4 189.161 45.848C189.705 46.936 190.489 47.816 191.513 48.488C192.569 49.128 193.737 49.448 195.017 49.448C195.881 49.448 196.745 49.288 197.609 48.968C198.505 48.648 199.225 48.216 199.769 47.672L202.841 50.648ZM199.385 38.84C199.001 38.04 198.393 37.448 197.561 37.064C196.729 36.648 195.881 36.44 195.017 36.44C194.089 36.44 193.225 36.616 192.425 36.968C191.657 37.32 190.985 37.8 190.409 38.408C189.833 38.984 189.369 39.656 189.017 40.424C188.697 41.192 188.537 41.976 188.537 42.776C188.537 42.936 188.537 43.048 188.537 43.112C188.569 43.176 188.585 43.224 188.585 43.256C189.417 42.936 190.313 42.584 191.273 42.2C192.265 41.784 193.241 41.384 194.201 41C195.161 40.584 196.089 40.2 196.985 39.848C197.881 39.464 198.681 39.128 199.385 38.84ZM251.05 18.2V54.584C250.602 54.008 249.738 53.08 248.458 51.8C247.178 50.52 245.706 49.048 244.042 47.384C242.378 45.72 240.602 43.976 238.714 42.152C236.858 40.328 235.098 38.6 233.434 36.968C231.77 35.304 230.314 33.832 229.066 32.552C227.818 31.24 226.986 30.312 226.57 29.768L225.658 28.52L225.802 30.056V53H220.522V16.568C220.874 17.016 221.45 17.656 222.25 18.488C223.082 19.32 224.042 20.296 225.13 21.416C226.25 22.504 227.466 23.688 228.778 24.968C230.122 26.248 231.466 27.544 232.81 28.856C234.186 30.168 235.53 31.464 236.842 32.744C238.186 33.992 239.402 35.16 240.49 36.248C241.61 37.336 242.57 38.296 243.37 39.128C244.17 39.96 244.73 40.584 245.05 41L245.962 42.344L245.818 40.712V18.2H251.05ZM255.894 42.92C255.894 41.48 256.166 40.12 256.71 38.84C257.286 37.56 258.054 36.456 259.014 35.528C259.974 34.568 261.094 33.816 262.374 33.272C263.686 32.696 265.094 32.408 266.598 32.408C268.102 32.408 269.494 32.696 270.774 33.272C272.086 33.816 273.206 34.568 274.134 35.528C275.094 36.456 275.83 37.56 276.342 38.84C276.886 40.12 277.158 41.48 277.158 42.92C277.158 44.36 276.886 45.72 276.342 47C275.83 48.28 275.094 49.4 274.134 50.36C273.206 51.32 272.086 52.088 270.774 52.664C269.494 53.208 268.086 53.48 266.55 53.48C265.078 53.48 263.686 53.224 262.374 52.712C261.094 52.2 259.974 51.48 259.014 50.552C258.054 49.624 257.286 48.52 256.71 47.24C256.166 45.928 255.894 44.488 255.894 42.92ZM259.974 42.968C259.974 43.864 260.134 44.712 260.454 45.512C260.806 46.28 261.27 46.968 261.846 47.576C262.454 48.152 263.142 48.616 263.91 48.968C264.71 49.288 265.558 49.448 266.454 49.448C267.35 49.448 268.198 49.288 268.998 48.968C269.798 48.616 270.486 48.152 271.062 47.576C271.67 46.968 272.15 46.28 272.502 45.512C272.854 44.712 273.03 43.864 273.03 42.968C273.03 42.072 272.854 41.224 272.502 40.424C272.15 39.624 271.67 38.936 271.062 38.36C270.486 37.752 269.798 37.288 268.998 36.968C268.198 36.616 267.35 36.44 266.454 36.44C265.558 36.44 264.71 36.616 263.91 36.968C263.142 37.288 262.454 37.752 261.846 38.36C261.27 38.936 260.806 39.624 260.454 40.424C260.134 41.224 259.974 42.072 259.974 42.968ZM282.921 24.104H287.001V32.984H292.377V36.632H287.001V53H282.921V36.632H279.321V32.984H282.921V24.104Z" fill="white"/>
</g>
<defs>
<filter id="filter0_d" x="0.936035" y="76.3521" width="205.373" height="63.248" filterUnits="userSpaceOnUse" color-interpolation-filters="sRGB">
<feFlood flood-opacity="0" result="BackgroundImageFix"/>
<feColorMatrix in="SourceAlpha" type="matrix" values="0 0 0 0 0 0 0 0 0 0 0 0 0 0 0 0 0 0 127 0"/>
<feOffset dy="4"/>
<feGaussianBlur stdDeviation="2"/>
<feColorMatrix type="matrix" values="0 0 0 0 0 0 0 0 0 0 0 0 0 0 0 0 0 0 0.25 0"/>
<feBlend mode="normal" in2="BackgroundImageFix" result="effect1_dropShadow"/>
<feBlend mode="normal" in="SourceGraphic" in2="effect1_dropShadow" result="shape"/>
</filter>
<filter id="filter1_d" x="4.27197" y="16.568" width="292.104" height="54.08" filterUnits="userSpaceOnUse" color-interpolation-filters="sRGB">
<feFlood flood-opacity="0" result="BackgroundImageFix"/>
<feColorMatrix in="SourceAlpha" type="matrix" values="0 0 0 0 0 0 0 0 0 0 0 0 0 0 0 0 0 0 127 0"/>
<feOffset dy="4"/>
<feGaussianBlur stdDeviation="2"/>
<feColorMatrix type="matrix" values="0 0 0 0 0 0 0 0 0 0 0 0 0 0 0 0 0 0 0.25 0"/>
<feBlend mode="normal" in2="BackgroundImageFix" result="effect1_dropShadow"/>
<feBlend mode="normal" in="SourceGraphic" in2="effect1_dropShadow" result="shape"/>
</filter>
</defs>
</svg>
