<svg width="375" height="812" viewBox="0 0 375 812" fill="none" xmlns="http://www.w3.org/2000/svg">
<path d="M375.289 167.14C375.289 167.14 375.149 232.402 189.587 232.003C4.02584 231.605 -0.000104845 301.376 -0.000104845 301.376L1.27294 -292.001L99.8629 -291.789L190.711 -291.594L376.272 -291.196L375.289 167.14Z" fill="#CCF2E0"/>
<path d="M375.327 149.14C375.327 149.14 375.187 214.402 189.626 214.003C4.06442 213.605 0.0384694 283.376 0.0384694 283.376L1.31152 -310.001L99.9014 -309.789L190.749 -309.594L376.311 -309.196L375.327 149.14Z" fill="#A3DAC0"/>
<path d="M375.926 -129.859C375.926 -129.859 375.786 -64.5977 190.224 -64.9959C4.66305 -65.394 0.637102 4.37723 0.637102 4.37723L1.91015 -589L100.5 -588.788L191.348 -588.594L376.909 -588.195L375.926 -129.859Z" fill="#82BDA1"/>
<path d="M0 501.041C0 501.041 0 435.78 185.562 435.78C371.124 435.78 375 366 375 366V959.379H276.41H185.562H0V501.041Z" fill="#CCF2E0"/>
<path d="M0 519.041C0 519.041 0 453.78 185.562 453.78C371.124 453.78 375 384 375 384V977.379H276.41H185.562H0V519.041Z" fill="#A3DAC0"/>
<path d="M0 798.041C0 798.041 0 732.78 185.562 732.78C371.124 732.78 375 663 375 663V1256.38H276.41H185.562H0V798.041Z" fill="#82BDA1"/>
</svg>
